<?xml version="1.0" encoding="utf-8"?>
<!-- Generator: Adobe Illustrator 19.2.0, SVG Export Plug-In . SVG Version: 6.00 Build 0)  -->
<svg version="1.1" id="Layer_1" xmlns="http://www.w3.org/2000/svg" xmlns:xlink="http://www.w3.org/1999/xlink" x="0px" y="0px"
	 viewBox="0 0 1808.4 697.9" style="enable-background:new 0 0 1808.4 697.9;" xml:space="preserve">
<style type="text/css">
	.st0{fill:#FFFFFF;}
	.st1{fill:#144733;}
	.st2{fill:#4BB649;}
</style>
<rect width="1808.4" height="697.9"/>
<g id="white">
	<polygon class="st0" points="1516.4,329.9 1516.4,418.1 1617.8,418.1 1617.8,697.9 1707,697.9 1707,418.1 1808.4,418.1 
		1808.4,329.9 	"/>
	<polygon class="st0" points="1362.6,329.9 1362.6,518.5 1236.2,329.9 1159.9,329.9 1159.9,697.9 1249.6,697.9 1249.6,509.5 
		1376,697.9 1452,697.9 1452,329.9 	"/>
	<polygon class="st0" points="445.6,609.9 445.6,329.9 356.4,329.9 356.4,697.9 648.5,697.9 648.5,609.9 	"/>
	<path class="st0" d="M246,354.4c-15.2-11.5-33.2-19-53.6-22.1c-8.4-1.6-17.2-2.5-26.3-2.5H0v88.2h165.1c5.1,0,9.6,0.4,13.5,1.2
		c5,1,8.9,2.9,12,5.7c3.6,3.3,6.4,7.5,8.2,12.4c2.1,5.6,3.2,11.6,3.2,17.8c0,6.3-1.1,12.4-3.2,17.9c-1.8,4.7-4.5,8.7-8,11.9
		c-3.1,2.8-7.2,4.7-12.2,5.7l-0.4,0.1l-0.6,0.1l-0.5,0.1c-3.2,0.8-7.3,1.3-12,1.3H0v205.6h89.4V580.1H166c9,0,17.7-0.6,25.9-1.9
		c20.7-3.3,38.8-10.9,54-22.6c15.1-11.7,26.8-26.6,34.6-44.2c7.6-17.1,11.4-35.9,11.4-56.1c0-20.2-3.8-39.2-11.2-56.3
		C273,381.1,261.3,366.1,246,354.4z"/>
	<g>
		<path class="st0" d="M655.1,0c-67.9,126.7-87,221.4-71.3,314.8C595.8,387,632.3,443.2,687.3,480c2.1-23.2,6.6-46.4,13.4-69.6
			c-1.3-0.7-2.6-1.4-4.2-2.3c-2.2-1.3-4.6-3-7.2-4.7c-1.3-0.9-2.6-1.8-4.1-2.7c-1.3-1-2.7-2.1-4.1-3.2c-2.8-2.2-5.8-4.4-8.6-7
			c-2.9-2.5-5.9-5.1-8.6-8.1c-1.4-1.4-2.8-2.8-4.2-4.3l-4-4.5c-2.7-3-5.2-6.1-7.7-9.2c-2.5-3.1-4.6-6.3-6.8-9.3
			c-2.1-3.1-4.1-6.1-5.9-9c-1.8-2.9-3.4-5.7-4.8-8.3c-5.8-10.3-8.5-17.7-8.5-17.7s4.2,6.6,11.8,15.4c1.9,2.2,4,4.5,6.2,6.9
			c2.2,2.4,4.8,4.8,7.3,7.4c2.7,2.4,5.3,5,8.2,7.4c2.9,2.4,5.8,4.8,8.8,7l4.5,3.3c1.5,1,3.1,2.1,4.6,3.1c3,2.1,6.2,3.9,9.2,5.6
			c2.9,1.8,6,3.2,8.8,4.6c1.4,0.7,2.8,1.4,4.1,2c0.7,0.3,1.4,0.6,2.2,0.9c-2.3-9.9-4.6-20-6.8-30.3c-3.2-14.1-5.8-28.6-8.6-43.1
			c-2.3-12.1-4.1-24.3-6.1-36.3c-0.3-0.2-0.6-0.5-1-0.7c-1.2-0.8-2.6-1.8-4.2-2.9c-1.6-1.1-3.3-2.5-5.2-4c-1.9-1.5-4-3-6.1-4.9
			c-2.1-1.9-4.3-3.8-6.5-5.8c-2.1-2.1-4.3-4.3-6.5-6.6c-2.1-2.4-4.2-4.7-6.2-7.1c-2-2.5-4.1-4.9-5.8-7.5c-1.8-2.5-3.6-5-5.1-7.5
			c-3.2-5-5.8-9.8-7.8-14c-3.8-7.9-5.5-13.6-5.7-14.4c0.3,0.6,3,6,8.2,12.8c2.7,3.6,6.1,7.8,10,11.9c1.9,2.1,4,4.1,6.2,6.1
			c2.1,2.1,4.5,4,6.7,5.9c2.3,1.9,4.7,3.7,7,5.5c2.4,1.6,4.8,3.3,7.1,4.9c2.3,1.5,4.7,2.8,6.9,4.1c1.6,1.1,3.4,1.9,5,2.7
			c-1.2-9.4-2.4-18.6-3.5-27.7c-1.3-13.8-2.6-27.1-3.5-39.7c-0.6-12.6-1.1-24.6-1.6-35.6c0-11.1,0.2-21.2,0.3-30.1
			c-0.1-9,0.9-16.8,1.3-23.2c1-12.8,1.7-20.1,1.7-20.1s0.3,7.3,0.7,20.1c0.3,6.4,0.1,14.2,1.1,23c0.8,8.9,1.6,18.9,2.5,29.7
			c1.4,10.8,2.9,22.6,4.4,35c2,12.4,4,25.4,6.2,38.9c1.8,9.6,3.7,19.4,5.6,29.3c1.6-1.6,3.5-3.3,5.2-5.2c1.8-2,3.8-4.1,5.8-6.3
			c1.9-2.3,3.8-4.7,5.8-7.2c1.8-2.5,3.7-5.1,5.5-7.8c1.7-2.7,3.5-5.3,5.1-8.1c1.6-2.8,3.2-5.5,4.4-8.2c1.4-2.7,2.5-5.4,3.7-8
			c1.1-2.6,2-5.1,2.8-7.3c1.6-4.6,2.7-8.6,3.3-11.4c0.6-2.8,0.8-4.4,0.8-4.4s0.1,1.6,0,4.5c-0.1,2.9-0.4,7.1-1.1,12
			c-0.4,2.5-0.8,5.2-1.4,8c-0.6,2.8-1.3,5.8-2.2,8.9c-0.8,3.1-1.8,6.1-2.9,9.3c-1,3.2-2.4,6.3-3.6,9.5c-1.4,3.1-2.8,6.2-4.2,9.3
			c-1.6,3-3.2,5.9-4.6,8.8c-1.7,2.8-3.3,5.4-4.8,8c-1.5,2.5-3.3,4.8-4.7,6.9c-1.5,2.1-2.8,4.1-4.2,5.8c-1.3,1.6-2.4,3.1-3.4,4.3
			c-0.3,0.4-0.6,0.7-0.8,1c2.3,10.7,4.5,21.4,7.1,32.2c3.4,14.2,6.4,28.4,10.1,42.3c1.7,6.8,3.4,13.5,5.1,20.2
			c3.7-8.8,7.7-17.6,12.1-26.4c22.5-45.1,50.4-85.8,84.5-123.2C787.9,147.3,739.7,78.2,655.1,0z"/>
		<path class="st0" d="M1087.7,55.1c-122.6,59.2-207.9,120.2-268.5,190.1c-16.3,18.7-30.7,38.1-43.7,58.3c-2,3.2-4.1,6.4-6,9.6
			c-6.8,11-13.1,22.2-19,33.8c-1,2-2.1,4.1-3.1,6.1c-15.8,31.7-26.7,63.6-33,95.4c-2.9,14.9-4.8,29.8-5.7,44.6
			c-4,67.6,13.2,133.9,50,195.3c4.6-14.2,10.3-31,17-49.6c8-22.6,17.6-47.9,28.3-74.9c-0.5-1.1-1.1-2.3-1.8-3.8
			c-1.1-2.3-2.4-5.2-3.9-8.4c-1.4-3.3-2.7-7.1-4.2-11.2c-0.8-2.1-1.5-4.2-2.3-6.4c-0.7-2.3-1.4-4.6-2.1-7c-1.4-4.8-2.9-9.8-3.9-15.1
			c-1.2-5.2-2.4-10.7-3.1-16.2c-0.4-2.8-0.8-5.6-1.3-8.3c-0.3-2.8-0.5-5.6-0.8-8.5c-0.5-4.1-0.7-8.2-0.9-12.4c0-1.5-0.1-2.9-0.2-4.4
			c-0.3-5.5-0.1-10.9-0.1-16.2c0.3-5.2,0.4-10.2,0.8-15c0.4-4.8,0.8-9.2,1.3-13.4c1-8.2,2.3-15,3.2-19.7c1-4.7,1.7-7.4,1.7-7.4
			s-0.2,2.7-0.2,7.5c0,4.8,0.2,11.6,0.9,19.6c0.3,4.1,0.8,8.4,1.4,13c0.5,4.6,1.4,9.4,2.2,14.4c0.4,1.5,0.6,3.1,0.9,4.6
			c0.7,3.4,1.4,7,2.3,10.5c1.3,5.1,2.5,10.2,4.2,15.3c0.8,2.5,1.6,5.1,2.3,7.6c0.9,2.4,1.8,4.9,2.7,7.3c1.7,4.9,3.8,9.5,5.8,13.9
			c1.9,4.5,4.1,8.6,6.2,12.5c1,2,2,3.9,3,5.7c0.6,1,1.2,1.9,1.7,2.8c5.5-13.1,11.2-26.5,17.2-39.9c8.3-18.5,16.9-37.3,25.7-55.9
			c7.5-15.6,15.3-31.1,23.1-46.3c-0.2-0.5-0.4-0.9-0.5-1.4c-0.6-1.9-1.4-4.2-2.3-6.8c-1-2.6-1.7-5.6-2.7-8.9
			c-0.8-3.3-2.1-6.8-2.8-10.6c-0.8-3.8-1.7-7.8-2.5-11.9c-0.6-4.2-1.3-8.5-1.9-12.8c-0.4-4.4-0.9-8.8-1.2-13.3
			c-0.1-4.5-0.5-8.9-0.4-13.3c0-4.4,0.1-8.6,0.4-12.8c0.2-4.1,0.7-8.1,1.1-11.8c0.5-3.7,1-7.2,1.6-10.5c0.6-3.2,1.2-6.1,1.8-8.7
			c0.5-2.6,1.2-4.8,1.7-6.6c0.9-3.2,1.6-5.1,1.8-5.6c-0.1,0.5-0.4,2.5-0.7,5.8c-0.1,1.9-0.4,4.2-0.5,6.8c-0.1,2.6-0.2,5.6-0.1,8.8
			c0,3.2,0.2,6.7,0.4,10.3c0.3,3.6,0.6,7.5,1.2,11.4c0.5,4,1.2,8,1.9,12c0.6,4.1,1.8,8.2,2.7,12.2c1,4.1,2.3,8,3.4,12
			c1.4,3.9,2.7,7.7,4,11.3c1.4,3.6,3,7,4.4,10.3c1,2.5,2.2,4.8,3.3,7c1.5-2.8,3-5.6,4.5-8.4c4.9-8.7,9.7-17.3,14.4-25.7
			c4.9-8.4,9.6-16.6,14.4-24.6c4.9-7.9,9.6-15.8,14.3-23.2c4.8-7.5,9.4-14.8,14-21.7c4.7-6.9,9.2-13.5,13.6-20
			c4.5-6.3,8.8-12.3,12.9-18.1c4.1-5.7,8.3-10.9,12.1-15.9c7.5-10,14.7-18.3,20.4-25.3c5.7-6.9,10.7-12,13.8-15.7
			c2.8-3.1,4.5-5,4.9-5.4c-0.3,0.5-1.7,2.5-4.2,6c-2.7,4-6.8,9.7-11.9,17.1c-4.9,7.5-11.1,16.4-17.6,27.1
			c-6.7,10.5-13.7,22.7-21.5,35.9c-3.8,6.7-7.7,13.6-11.7,20.9c-3.9,7.2-8,14.7-12.2,22.5c-4.1,7.8-8.2,15.8-12.4,24
			c-4.1,8.2-8.3,16.6-12.6,25.2c-4.1,8.6-8.3,17.4-12.6,26.3c-1.8,3.8-3.6,7.7-5.3,11.6c3.2-0.5,6.7-0.8,10.4-1.6
			c3.7-0.8,7.7-1.6,11.7-2.4c4-1.1,8.2-2.2,12.4-3.3c4.2-1.4,8.4-2.7,12.7-4.2c4.1-1.7,8.4-3.2,12.4-5.1s8-3.6,11.7-5.7
			c3.8-1.9,7.4-4,10.7-6c3.3-2,6.4-4.1,9.3-6c2.8-2,5.4-3.8,7.6-5.6c2.3-1.7,4.1-3.3,5.6-4.6c2.6-2.3,4.2-3.9,4.6-4.2
			c-0.3,0.4-1.5,2.3-3.7,5.1c-1.3,1.6-2.8,3.6-4.7,5.7c-1.8,2.2-4.1,4.5-6.5,7c-2.5,2.5-5.2,5.2-8.2,7.9c-3,2.7-6.2,5.5-9.7,8.2
			c-3.4,2.9-7.2,5.5-11,8.2c-3.8,2.8-7.9,5.1-11.9,7.8c-4.1,2.4-8.3,4.7-12.5,7c-4.2,2.1-8.4,4.1-12.5,6.1c-4.2,1.7-8.2,3.4-12,5
			c-3.9,1.6-7.6,2.7-11,4c-3.4,1.2-6.6,2.4-9.4,3.1c-2.9,0.8-5.3,1.5-7.4,2.1c-0.7,0.2-1.3,0.4-1.9,0.5c-6.2,13.9-12.4,28-18.4,42.2
			c-8.1,18.7-15.9,37.6-23.3,56.3c-5.9,14.6-11.7,29.1-17.1,43.3c0.3,0,0.6,0,1,0c2-0.1,4.1-0.2,6.2-0.3c2.1-0.2,4.3-0.5,6.6-0.7
			c4.5-0.6,9.4-1,14.3-2c4.9-1,10.1-1.7,15.3-3.2c2.6-0.6,5.2-1.3,7.8-2c2.6-0.7,5.2-1.6,7.8-2.4c2.6-0.8,5.2-1.6,7.8-2.5
			c2.5-1,5.1-1.9,7.6-2.9c5.1-1.8,9.9-4.2,14.8-6.1c4.7-2.2,9.3-4.4,13.5-6.6c4.2-2.3,8.3-4.4,11.8-6.6c3.7-2.1,6.9-4.2,9.8-6
			c2.9-1.9,5.3-3.6,7.4-5c3.5-2.5,5.6-4.2,6.1-4.6c-0.4,0.5-2.1,2.6-5.1,5.8c-1.7,1.8-3.8,4-6.2,6.5c-2.5,2.4-5.3,5.2-8.5,8
			c-3.1,2.9-6.7,5.9-10.5,9.1c-3.8,3.2-8,6.3-12.3,9.6c-4.5,3.1-8.9,6.5-13.8,9.5c-2.4,1.5-4.9,3.1-7.3,4.6
			c-2.5,1.5-5.1,2.9-7.6,4.3c-2.5,1.4-5.1,3-7.7,4.2c-2.6,1.3-5.3,2.6-7.9,3.8c-5.1,2.7-10.5,4.7-15.7,6.9
			c-5.1,2.3-10.3,3.8-15.2,5.5c-2.4,0.8-4.8,1.6-7.2,2.3c-2.3,0.6-4.6,1.2-6.8,1.8c-4.4,1.1-8.4,2.3-12,3c-2.8,0.5-5.3,1-7.5,1.3
			c-3.6,9.5-7.1,18.9-10.4,27.9c-6,16.5-11.6,32.1-16.8,46.5c-6.6,18.5-12.4,35.1-17.2,49c116.7-14.6,211.3-79.8,267.2-191.8
			C1113.7,387.4,1126.9,252.7,1087.7,55.1z"/>
	</g>
</g>
</svg>
